<svg xmlns="http://www.w3.org/2000/svg" width="1920" height="1080" viewBox="0 0 1920 1080"><defs><radialGradient id="b" cx="30%" cy="25%" r="65%"><stop offset="0" stop-color="#a5b4fc" stop-opacity=".35"/><stop offset="1" stop-color="#a5b4fc" stop-opacity="0"/></radialGradient><radialGradient id="c" cx="80%" cy="70%" r="70%"><stop offset="0" stop-color="#67e8f9" stop-opacity=".28"/><stop offset="1" stop-color="#67e8f9" stop-opacity="0"/></radialGradient><linearGradient id="a" x1="0" x2="1" y1="0" y2="1"><stop offset="0" stop-color="#f8fafc"/><stop offset=".6" stop-color="#eef2ff"/><stop offset="1" stop-color="#ecfeff"/></linearGradient><filter id="d" width="140%" height="140%" x="-20%" y="-20%"><feGaussianBlur stdDeviation="18"/></filter></defs><path fill="url(#a)" d="M0 0h1920v1080H0z"/><path fill="url(#b)" d="M0 0h1920v1080H0z"/><path fill="url(#c)" d="M0 0h1920v1080H0z"/><g fill="#fff" filter="url(#d)" opacity=".35"><path d="M140 140 620 40l140 300-460 80Zm1080-60 620 120-160 320-560-100ZM960 560l620 60-140 420-580-60ZM120 720l500-80 120 340-540 80Z"/></g><path fill="none" stroke="#0f172a" stroke-width="2" d="M120 260c300-120 520-120 800-40m80 60c240-90 500-80 820 60M140 880c320-120 620-120 940-40" opacity=".12"/></svg>