<svg xmlns="http://www.w3.org/2000/svg" width="1600" height="900" viewBox="0 0 1600 900"><defs><radialGradient id="c" cx="25%" cy="20%" r="70%"><stop offset="0" stop-color="#93c5fd" stop-opacity=".45"/><stop offset="1" stop-color="#93c5fd" stop-opacity="0"/></radialGradient><radialGradient id="d" cx="75%" cy="70%" r="80%"><stop offset="0" stop-color="#6ee7b7" stop-opacity=".35"/><stop offset="1" stop-color="#6ee7b7" stop-opacity="0"/></radialGradient><radialGradient id="e" cx="75%" cy="25%" r="70%"><stop offset="0" stop-color="#fda4af" stop-opacity=".22"/><stop offset="1" stop-color="#fda4af" stop-opacity="0"/></radialGradient><linearGradient id="a" x1="0" x2="1" y1="0" y2="1"><stop offset="0" stop-color="#fff"/><stop offset=".5" stop-color="#f1f5ff"/><stop offset="1" stop-color="#ecfeff"/></linearGradient><filter id="b" width="140%" height="140%" x="-20%" y="-20%"><feGaussianBlur stdDeviation="30"/></filter></defs><path fill="url(#a)" d="M0 0h1600v900H0z"/><g filter="url(#b)"><circle cx="340" cy="200" r="340" fill="url(#c)"/><circle cx="1200" cy="630" r="420" fill="url(#d)"/><circle cx="1260" cy="220" r="360" fill="url(#e)"/></g><g opacity=".14"><path fill="#0ea5e9" d="M0 640c240-120 420 120 720 10 260-90 460 40 880-70v320H0Z"/><path fill="#22c55e" d="M0 720c260-110 420 100 760-20 280-100 480 60 840-50v250H0Z"/></g><g opacity=".12"><path fill="#6366f1" d="m220 120 300-80 260 120-320 100Z"/><path fill="#06b6d4" d="m980 110 270-50 150 150-280 50Z"/></g></svg>